<?xml version="1.0" encoding="utf-8"?>
<!-- Generator: Adobe Illustrator 28.0.0, SVG Export Plug-In . SVG Version: 6.00 Build 0)  -->
<svg version="1.1" xmlns="http://www.w3.org/2000/svg" xmlns:xlink="http://www.w3.org/1999/xlink" x="0px" y="0px"
	 viewBox="0 0 510 510" style="enable-background:new 0 0 510 510;" xml:space="preserve">
<style type="text/css">
	.st0{fill:#231F20;}
	.st1{fill:#6D2520;}
</style>
<g id="Layer_1">
</g>
<g id="Layer_2">
	<g>
		<path class="st0" d="M256.2,289c-5.2,0-9.3,1-12.1,3.1c-2.9,2.1-4.3,5.2-4.3,9.3c0,3.8,2.1,7.1,6.3,10c4.2,2.9,9.8,5.6,16.7,8.2
			c5.7,2.1,10.5,4.4,14.5,7.1c4,2.7,7.4,6.3,10,11c2.7,4.7,4,10.6,4,17.8c0,6.2-1.6,11.9-4.8,17.2c-3.2,5.3-7.9,9.5-14.1,12.6
			c-6.2,3.1-13.6,4.6-22.2,4.6c-7.2,0-14.3-1.1-21.4-3.2c-7.1-2.1-13.6-5.4-19.7-9.7l10.4-18.4c4.1,3,8.9,5.5,14.2,7.5
			c5.3,2,10.1,2.9,14.4,2.9c5,0,9.4-1.1,13-3.2s5.5-5.6,5.5-10.4c0-6.2-5.8-11.6-17.4-16.1c-6.8-2.7-12.6-5.3-17.1-7.8
			c-4.6-2.5-8.5-6.1-11.8-10.8c-3.3-4.7-5-10.5-5-17.6c0-10.3,3.4-18.6,10.2-25c6.8-6.3,15.8-9.7,27.2-10.3c8.9,0,16.4,1,22.3,3
			c6,2,11.8,4.9,17.4,8.6l-9,18.1C273,291.9,263.9,289,256.2,289z"/>
		<path class="st0" d="M351.3,289c-5.2,0-9.3,1-12.1,3.1c-2.9,2.1-4.3,5.2-4.3,9.3c0,3.8,2.1,7.1,6.3,10c4.2,2.9,9.8,5.6,16.7,8.2
			c5.7,2.1,10.5,4.4,14.5,7.1c4,2.7,7.4,6.3,10,11c2.7,4.7,4,10.6,4,17.8c0,6.2-1.6,11.9-4.8,17.2c-3.2,5.3-7.9,9.5-14.1,12.6
			c-6.2,3.1-13.6,4.6-22.2,4.6c-7.2,0-14.3-1.1-21.4-3.2c-7.1-2.1-13.6-5.4-19.7-9.7l10.4-18.4c4.1,3,8.9,5.5,14.2,7.5
			c5.3,2,10.1,2.9,14.4,2.9c5,0,9.4-1.1,13-3.2s5.5-5.6,5.5-10.4c0-6.2-5.8-11.6-17.4-16.1c-6.8-2.7-12.6-5.3-17.1-7.8
			c-4.6-2.5-8.5-6.1-11.8-10.8c-3.3-4.7-5-10.5-5-17.6c0-10.3,3.4-18.6,10.2-25c6.8-6.3,15.8-9.7,27.2-10.3c8.9,0,16.4,1,22.3,3
			c6,2,11.8,4.9,17.4,8.6l-9,18.1C368.1,291.9,359,289,351.3,289z"/>
		<path class="st0" d="M433.2,268.7v97.2h56.4v22.8h-80.1v-120H433.2z"/>
	</g>
	<g>
		<path class="st1" d="M27.5,147.3c5.6-9.5,13-17,22.4-22.6s19.7-8.4,30.8-8.4c11,0,21.2,2.8,30.7,8.4c9.4,5.6,17,13.1,22.6,22.6
			c5.6,9.5,8.4,19.7,8.4,30.7c0,11.1-2.8,21.4-8.3,30.9s-13.1,16.9-22.6,22.4c-9.5,5.5-19.8,8.3-30.8,8.3c-11.1,0-21.4-2.7-30.9-8.2
			c-9.5-5.4-16.9-12.9-22.4-22.3c-5.5-9.4-8.3-19.8-8.3-31.1C19.1,167,21.9,156.8,27.5,147.3z M41.8,201c4,7,9.5,12.6,16.4,16.7
			s14.5,6.2,22.8,6.2c8.2,0,15.8-2,22.6-6.1c6.8-4.1,12.2-9.6,16.2-16.7c3.9-7.1,5.9-14.8,5.9-23.1c0-8.3-2-16.1-6-23.2
			c-4-7.1-9.5-12.7-16.3-16.8c-6.9-4.1-14.5-6.2-22.7-6.2s-15.8,2.1-22.7,6.3c-6.9,4.2-12.3,9.8-16.3,16.9
			c-3.9,7.1-5.9,14.8-5.9,23.2C35.8,186.4,37.8,194,41.8,201z"/>
		<path class="st1" d="M215.1,171c5.2,3.1,9.3,7.5,12.3,13.1c3,5.6,4.5,12.1,4.5,19.4c0,7.2-1.6,13.6-4.8,19.1
			c-3.2,5.5-7.7,9.8-13.3,12.8c-5.7,3-12,4.5-19,4.5c-5,0-9.8-1.1-14.3-3.3c-4.6-2.2-8.2-5.1-11-8.8v43.5h-15.5V168h13.5l1.3,11.7
			c3.6-4,7.8-7.2,12.8-9.7c4.9-2.4,10.3-3.7,16.1-3.7C204,166.3,209.8,167.9,215.1,171z M203.8,224.3c3.7-2.1,6.7-4.9,8.9-8.5
			c2.2-3.6,3.3-7.6,3.3-12.1c0-4.6-1-8.7-3.1-12.3c-2.1-3.7-4.9-6.6-8.4-8.7c-3.6-2.1-7.5-3.2-11.8-3.2c-5.9,0-10.9,1.6-15.1,4.9
			s-6.9,7.7-8.3,13.3v11.5c0.9,5.3,3.4,9.7,7.6,13.1c4.2,3.4,9.1,5.1,14.8,5.1C196,227.4,200.1,226.4,203.8,224.3z"/>
		<path class="st1" d="M384.1,172.3c4.2,3.8,6.4,8.8,6.5,14.9v51h-15.7v-45.7c-0.2-3.9-1.4-6.9-3.5-9.2c-2.1-2.2-5.3-3.4-9.5-3.5
			c-6.1,0-11.2,2.4-15.2,7.3c-4,4.9-6,11.1-6,18.7v32.4h-15.5v-69.1h14l1,13.3c2.4-5,6.1-8.9,11-11.8c4.9-2.8,10.5-4.3,16.8-4.3
			C374.5,166.5,379.9,168.4,384.1,172.3z"/>
		<g>
			<path class="st1" d="M242.5,203.4c0-21.3,16.2-38.1,36.9-38.1c20.3,0,35.6,16.9,35.6,38.8v4.1h-58c2,12.2,12,21.1,24.7,21.1
				c7.2,0,14-2.3,18.7-6.5l9.3,9.1c-8.7,6.7-17.5,9.7-28.5,9.7C259.4,241.6,242.5,224.9,242.5,203.4z M300.7,197.3
				c-2-11.3-10.9-19.7-21.6-19.7c-11.1,0-20,8-22,19.7H300.7z"/>
		</g>
	</g>
</g>
</svg>
