<?xml version="1.0" encoding="UTF-8"?>
<svg id="Layer_1" xmlns="http://www.w3.org/2000/svg" viewBox="0 0 322.6 75.96">
  <defs>
    <style>
      .cls-1 {
        fill: #231f20;
      }

      .cls-2 {
        fill: #560f11;
      }
    </style>
  </defs>
  <path class="cls-2" d="M79,14.1c-12.17,0-22.08,9.9-22.08,22.08v39.79h9.08v-39.79c0-7.17,5.83-13,13-13s13,5.83,13,13-5.83,13-13,13c-1.37,0-2.69-.22-3.93-.61v9.32c1.28.23,2.58.36,3.93.36,12.17,0,22.08-9.9,22.08-22.08s-9.9-22.08-22.08-22.08"/>
  <path class="cls-2" d="M28.89,14.19v9.08c7.17,0,13,5.83,13,13s-5.83,13-13,13-13-5.83-13-13H6.82c0,12.17,9.9,22.08,22.08,22.08s22.08-9.9,22.08-22.08-9.9-22.08-22.08-22.08"/>
  <path class="cls-1" d="M22.08,15.33h0V6.25C9.9,6.25,0,16.16,0,28.33h9.07c0-7.17,5.83-13,13-13"/>
  <path class="cls-2" d="M194.7,55.59h-9.08v-19.41c0-6-2.81-13-10.73-13s-10.73,7-10.73,13v19.41h-9.07v-19.41c0-13,8.14-22.08,19.81-22.08s19.81,9.08,19.81,22.08v19.41Z"/>
  <path class="cls-2" d="M128.26,14.1c-12.17,0-22.08,9.9-22.08,22.08,0,10.57,7.48,19.43,17.42,21.58v-9.45c-4.87-1.88-8.34-6.6-8.34-12.12,0-7.17,5.83-13,13-13,6.16,0,11.32,4.31,12.66,10.08h-17.31v6.81h17.07s0,.01,0,.02h9.32s0-.01,0-.02c.05-.26.09-.52.13-.78.14-1.01.22-2.05.22-3.1,0-12.17-9.9-22.08-22.08-22.08"/>
  <path class="cls-1" d="M237.11,27.64c-1.9-1.1-4-2.01-6.24-2.7-2.22-.68-4.5-1.28-6.77-1.79-2.24-.5-4.3-1.03-6.12-1.58-1.75-.53-3.18-1.26-4.25-2.19-1.01-.88-1.51-2.01-1.51-3.47,0-1.2.35-2.27,1.06-3.26.71-.99,1.88-1.8,3.49-2.41,1.32-.5,2.98-.81,4.91-.91h16.22L237.81,0h-15.92l-.38.03h0c-4.16.17-7.69.9-10.51,2.18-3.24,1.48-5.69,3.48-7.28,5.96-1.59,2.48-2.4,5.24-2.4,8.21s.6,5.36,1.79,7.26c1.18,1.89,2.76,3.41,4.7,4.54,1.89,1.1,4.01,2.02,6.28,2.73,2.24.71,4.52,1.31,6.78,1.79,2.22.47,4.26,1,6.07,1.57,1.76.55,3.21,1.31,4.3,2.24,1.04.88,1.54,2.01,1.54,3.46,0,1.19-.36,2.23-1.09,3.17-.74.94-1.92,1.71-3.52,2.27-1.36.48-3.11.76-5.21.85h-20.57s.08,9.33.08,9.33h19.99l.59-.02h0c4.29-.15,7.93-.88,10.83-2.19,3.26-1.48,5.72-3.48,7.31-5.96,1.59-2.48,2.4-5.21,2.4-8.13s-.6-5.27-1.79-7.15c-1.18-1.86-2.76-3.37-4.69-4.5"/>
  <path class="cls-1" d="M282.11,27.64c-1.9-1.1-4-2.01-6.24-2.7-2.22-.68-4.5-1.28-6.77-1.79-2.24-.5-4.3-1.03-6.12-1.58-1.75-.53-3.18-1.26-4.25-2.19-1.01-.88-1.51-2.01-1.51-3.47,0-1.2.35-2.27,1.06-3.26.71-.99,1.88-1.8,3.49-2.41,1.32-.5,2.98-.81,4.91-.91h16.22L282.8,0h-15.92l-.38.03h0c-4.16.17-7.69.9-10.51,2.18-3.24,1.48-5.69,3.48-7.28,5.96-1.59,2.48-2.4,5.24-2.4,8.21s.6,5.36,1.79,7.26c1.18,1.89,2.76,3.41,4.7,4.54,1.89,1.1,4.01,2.02,6.28,2.73,2.24.71,4.52,1.31,6.78,1.79,2.22.47,4.26,1,6.07,1.57,1.76.55,3.21,1.31,4.3,2.24,1.04.88,1.54,2.01,1.54,3.46,0,1.19-.36,2.23-1.09,3.17-.74.94-1.92,1.71-3.52,2.27-1.36.48-3.12.77-5.23.85h-20.16s.08,9.33.08,9.33h19.6l.57-.02h0c4.3-.14,7.95-.87,10.86-2.19,3.26-1.48,5.72-3.48,7.31-5.96,1.59-2.48,2.4-5.21,2.4-8.13s-.6-5.27-1.79-7.15c-1.18-1.86-2.76-3.37-4.69-4.5"/>
  <path class="cls-1" d="M316.44,44.33c-5.66,0-10.43-3.97-11.61-9.28-.35-1.57-.29-2.85-.29-3.75V0h-11.29l.02,32.43c0,12.78,10.4,23.17,23.18,23.17h6.16v-11.27h-6.16Z"/>
  <path class="cls-1" d="M155.54,75.96v-13.3h1.6v11.7h5.96v1.6h-7.55Z"/>
  <path class="cls-1" d="M184.84,75.96v-13.3h1.6v13.3h-1.6Z"/>
  <path class="cls-1" d="M207.54,75.96v-13.3h4.59c.66,0,1.26.13,1.8.4.54.27.97.66,1.29,1.17.32.51.48,1.13.48,1.84,0,.39-.07.76-.2,1.12s-.31.67-.53.92c-.23.26-.48.43-.77.52.4.1.74.28,1.02.54.28.26.5.56.68.9.17.34.3.7.38,1.07.08.37.11.73.11,1.08,0,.73-.17,1.38-.5,1.94s-.78,1-1.33,1.32c-.56.32-1.17.47-1.84.47h-5.17ZM209.13,68.04h2.84c.58,0,1.08-.17,1.5-.52.41-.35.62-.83.62-1.45,0-.67-.21-1.17-.62-1.51-.42-.33-.91-.5-1.5-.5h-2.84v3.97ZM209.13,74.55h3.43c.44,0,.83-.11,1.19-.34s.64-.53.86-.93c.21-.39.32-.84.32-1.33,0-.44-.11-.85-.32-1.24s-.5-.7-.86-.95c-.36-.24-.76-.36-1.19-.36h-3.43v5.14Z"/>
  <path class="cls-1" d="M233.89,75.96v-13.3h4.67c.71,0,1.35.17,1.92.52s1.03.82,1.37,1.41c.34.59.51,1.25.51,1.98,0,.64-.13,1.22-.38,1.75-.25.53-.6.96-1.04,1.32s-.94.59-1.5.73l3.23,5.6h-1.84l-3.17-5.46h-2.18v5.46h-1.6ZM235.49,68.9h2.92c.43,0,.83-.11,1.19-.32.36-.21.65-.5.86-.86s.32-.77.32-1.23-.11-.88-.32-1.24-.5-.65-.86-.87c-.36-.21-.76-.32-1.19-.32h-2.92v4.83Z"/>
  <path class="cls-1" d="M263.64,62.66h1.93l4.83,13.3h-1.69l-.99-2.72h-6.24l-.98,2.72h-1.7l4.84-13.3ZM262.07,71.65h5.06l-2.54-6.94-2.53,6.94Z"/>
  <path class="cls-1" d="M286.53,75.96v-13.3h4.67c.71,0,1.35.17,1.92.52s1.03.82,1.37,1.41c.34.59.51,1.25.51,1.98,0,.64-.13,1.22-.38,1.75-.25.53-.6.96-1.04,1.32-.44.35-.94.59-1.5.73l3.23,5.6h-1.84l-3.17-5.46h-2.17v5.46h-1.6ZM288.13,68.9h2.92c.43,0,.83-.11,1.19-.32.36-.21.65-.5.86-.86.21-.36.32-.77.32-1.23s-.11-.88-.32-1.24c-.21-.36-.5-.65-.86-.87-.36-.21-.76-.32-1.19-.32h-2.92v4.83Z"/>
  <path class="cls-1" d="M320.67,62.66h1.88l-4.5,7.29v6.01h-1.6v-6.01l-4.5-7.29h1.88l3.42,5.54,3.42-5.54Z"/>
</svg>
