<?xml version="1.0" encoding="utf-8"?>
<!-- Generator: Adobe Illustrator 17.1.0, SVG Export Plug-In . SVG Version: 6.00 Build 0)  -->
<!DOCTYPE svg PUBLIC "-//W3C//DTD SVG 1.1//EN" "http://www.w3.org/Graphics/SVG/1.1/DTD/svg11.dtd">
<svg version="1.1" xmlns="http://www.w3.org/2000/svg" xmlns:xlink="http://www.w3.org/1999/xlink" x="0px" y="0px"
	 viewBox="0 0 494.8 134.4" enable-background="new 0 0 494.8 134.4" xml:space="preserve">
<g id="Background">
</g>
<g id="Guides">
</g>
<g id="Foreground">
	<path fill-rule="evenodd" clip-rule="evenodd" fill="#FFFFFF" d="M121.3,85.4c4.1,3.2,8.9,6.1,15.4,6.1c9.7,0,12.3-5.9,12.3-13.6
		V10.2h10.5v55.3c0,4.8,0,10-0.3,14.8c-0.5,12.8-7.1,20.3-22.2,20.3c-10.4,0-18-4.3-21.1-7.6L121.3,85.4z M221.5,66.1
		c0-16-4.7-27.2-17.6-27.2c-12.7,0-18.4,10.7-18.4,25.1c0,13.2,2.7,28.8,17.9,28.8C216,92.8,221.5,80.6,221.5,66.1z M204.7,30.7
		c9.2,0,27.4,2.9,27.4,33.1c0,26-12.9,37-29.6,37c-17,0-27.4-11.5-27.4-35.5C175.1,37.7,191.5,30.7,204.7,30.7z M296,96.3V32.6
		h-10.1v39.8c0,9.2-6.1,15.6-16.3,15.6c-14.2,0-15.1-7.7-15.1-17.9V32.6h-10.4v40.3c0,15.2,7.3,20.7,18.7,21.9
		c-6.5,4.3-14.7,12-14.7,22.8c0,10.3,6.5,16.8,20.2,16.8c14.1,0,22.7-6.8,26-19.8C295.5,110,296,102.1,296,96.3z M269.3,126.4
		c12.1,0,16.4-10.5,16.4-25.1V89.7c-16,6.7-27.6,13.9-27.6,26.6C258.1,122.8,262,126.4,269.3,126.4z M339,30.7
		c-20.3,0-31,16.3-31,36c0,19.9,8.8,34,29.6,34c10.7,0,18.4-4.8,21.8-7.6l-4-6.8c-2.5,1.9-8.1,6.1-17.1,6.1
		c-14.1,0-19.5-11.5-20-22.4c1.1,0,2.1,0.1,3.5,0.1c12.9,0,36.7-3.2,36.7-23C358.5,37.4,351.4,30.7,339,30.7z M338.4,38.5
		c-14.3,0-19.8,13.5-20.2,24c0.8,0,1.6,0.1,2.7,0.1c9.1,0,27.8-2.1,27.8-14.1C348.7,42.2,344.5,38.5,338.4,38.5z M382.6,98.9V55.4
		c0-8,7.7-16.4,18-16.4c11.2,0,13.3,8,13.3,17.9v42h10.4V53.7c0-15.2-7.5-23-21.2-23c-8.7,0-16.4,4-21.5,11.5l-1.2-9.6h-8.9l0.7,10
		v56.3H382.6z M439.8,6.2v74.6c0,9.7,0.5,20,18.3,20c5.3,0,11.2-1.7,15.1-4.4l-3.1-6.9c-2.3,1.3-5.6,3.2-10.1,3.2
		c-6.3,0-9.7-2.8-9.7-11.6V41.5h19v-8.9h-19V6.2H439.8z M53,105.9c29.3,0,53-23.7,53-53c0-29.3-23.7-53-53-53C23.7,0,0,23.7,0,53
		C0,82.2,23.7,105.9,53,105.9z M43.5,24.6c0-1.1,0.9-2,2-2h14.9c1.1,0,2,0.9,2,2v18.9h18.9c1.1,0,2,0.9,2,2v14.9c0,1.1-0.9,2-2,2
		H62.4v18.9c0,1.1-0.9,2-2,2H45.5c-1.1,0-2-0.9-2-2V62.4H24.6c-1.1,0-2-0.9-2-2V45.5c0-1.1,0.9-2,2-2h18.9V24.6z M481.3,12.2
		c0,3.9,3.1,6.8,6.8,6.8c3.7,0,6.8-2.9,6.8-6.8c0-3.8-3.1-6.7-6.8-6.7C484.4,5.6,481.3,8.5,481.3,12.2z M482.5,12.2
		c0-3.2,2.4-5.7,5.6-5.7c3.1,0,5.5,2.5,5.5,5.7c0,3.3-2.4,5.8-5.5,5.8C484.9,18,482.5,15.5,482.5,12.2z M485.4,16.2h1.2v-3.4h1.3
		l2.1,3.4h1.3l-2.3-3.5c1.2-0.1,2.1-0.7,2.1-2.1c0-1.5-0.9-2.3-2.8-2.3h-3V16.2z M486.7,9.3h1.6c0.8,0,1.7,0.2,1.7,1.2
		c0,1.2-1,1.3-2.1,1.3h-1.3V9.3z"/>
</g>
</svg>
