<?xml version="1.0" encoding="utf-8"?>
<!-- Generator: Adobe Illustrator 18.0.0, SVG Export Plug-In . SVG Version: 6.00 Build 0)  -->
<!DOCTYPE svg PUBLIC "-//W3C//DTD SVG 1.1//EN" "http://www.w3.org/Graphics/SVG/1.1/DTD/svg11.dtd">
<svg version="1.1" id="Layer_1" xmlns="http://www.w3.org/2000/svg" xmlns:xlink="http://www.w3.org/1999/xlink" x="0px" y="0px"
	 width="1728px" height="720px" viewBox="0 0 1728 720" enable-background="new 0 0 1728 720" xml:space="preserve">
<g>
	<path fill="#FFFFFF" d="M260.4,405.2c0-5.1-3.1-10.2-7.1-12.2l-115.9-67.1c-2-1-4.1-2-6.1-2h-1c-2,0-4.1,1-6.1,2L7.1,393
		c-4.1,2-7.1,7.1-7.1,12.2v180c0,2,1,5.1,3.1,6.1s5.1,1,7.1,0l69.2-39.7c4.1-3.1,7.1-7.1,7.1-12.2v-84.4c0-5.1,3.1-9.2,7.1-12.2
		l29.5-17.3c2-1,5.1-2,7.1-2c2,0,5.1,1,7.1,2l29.5,17.3c4.1,2,7.1,7.1,7.1,12.2v84.4c0,5.1,3.1,9.2,7.1,12.2l69.2,39.7
		c2,1,5.1,1,7.1,0c2-1,3.1-3.1,3.1-6.1L260.4,405.2z"/>
	<path fill="#FFFFFF" d="M879.8,158.1c-2-1-5.1-1-7.1,0s-3.1,3.1-3.1,6.1v178c0,2-1,3.1-2,4.1c-1,1-3.1,1-5.1,0L833,330
		c-4.1-2-10.2-2-14.2,0l-115.9,67.1c-4.1,2-7.1,7.1-7.1,12.2v134.3c0,5.1,3.1,9.2,7.1,12.2l115.9,67.1c4.1,2,10.2,2,14.2,0
		l115.9-67.1c4.1-2,7.1-7.1,7.1-12.2V208.9c0-5.1-3.1-10.2-7.1-12.2L879.8,158.1z M868.6,498.8c0,1-1,2-2,3.1l-39.7,23.4
		c-1,1-2,1-3.1,0l-39.7-23.4c-1-1-2-2-2-3.1V453c0-1,1-2,2-3.1l39.7-23.4c1-1,2-1,3.1,0l39.7,23.4c1,1,2,2,2,3.1V498.8z"/>
	<path fill="#FFFFFF" d="M1294.7,451c4.1-2,7.1-7.1,7.1-12.2v-32.5c0-5.1-3.1-9.2-7.1-12.2l-114.9-66.1c-4.1-2-10.2-2-14.2,0
		l-115.9,67.1c-4.1,2-7.1,7.1-7.1,12.2v134.3c0,5.1,3.1,10.2,7.1,12.2l114.9,66.1c4.1,2,9.2,2,14.2,0l70.2-38.6c2-1,4.1-3.1,4.1-6.1
		c0-2-1-5.1-3.1-6.1l-117-67.1c-2-1-3.1-4.1-3.1-6.1V454c0-2,1-5.1,3.1-6.1l36.6-21.4c2-1,5.1-1,7.1,0l36.6,21.4
		c2,1,3.1,4.1,3.1,6.1v32.5c0,2,1,5.1,3.1,6.1s5.1,1,7.1,0L1294.7,451z"/>
	<path fill="#80BD01" d="M470.9,326.9c4.1-2,10.2-2,14.2,0L601.1,394c4.1,2,7.1,7.1,7.1,12.2v134.3c0,5.1-3.1,9.2-7.1,12.2
		l-115.9,67.1c-4.1,2-10.2,2-14.2,0L355,552.7c-4.1-2-7.1-7.1-7.1-12.2V406.2c0-5.1,3.1-9.2,7.1-12.2L470.9,326.9z"/>
	<path fill="#80BD01" d="M1520.5,620.8c-4.1,0-8.1-1-11.2-3.1l-36.6-21.4c-5.1-3.1-3.1-4.1-1-5.1c7.1-2,9.2-3.1,16.3-7.1
		c1,0,2,0,3.1,0l28.5,16.3c1,1,2,1,3.1,0l109.8-63.1c1-1,2-2,2-3.1V409.3c0-1-1-2-2-3.1l-109.8-63.1c-1-1-2-1-3.1,0l-109.8,63.1
		c-1,1-2,2-2,3.1v126.1c0,1,1,2,2,3.1l29.5,17.3c16.3,8.1,26.4-1,26.4-11.2V419.5c0-2,1-3.1,3.1-3.1h14.2c2,0,3.1,1,3.1,3.1v125.1
		c0,21.4-12.2,34.6-32.5,34.6c-6.1,0-11.2,0-25.4-7.1l-28.5-16.3c-7.1-4.1-11.2-12.2-11.2-20.3V409.3c0-8.1,4.1-16.3,11.2-20.3
		l109.8-63.1c7.1-4.1,16.3-4.1,23.4,0l109.8,63.1c7.1,4.1,11.2,12.2,11.2,20.3v126.1c0,8.1-4.1,16.3-11.2,20.3l-109.8,63.1
		C1527.6,619.8,1524.6,620.8,1520.5,620.8z"/>
	<path fill="#80BD01" d="M1554.1,534.4c-47.8,0-58-22.4-58-40.7c0-2,1-3.1,3.1-3.1h14.2c2,0,3.1,1,3.1,3.1
		c2,14.2,8.1,21.4,37.6,21.4c23.4,0,32.5-5.1,32.5-17.3c0-7.1-3.1-12.2-38.6-16.3c-29.5-3.1-48.8-9.2-48.8-33.6
		c0-22.4,18.3-35.6,49.8-35.6c34.6,0,52.9,12.2,54.9,38.6c0,1,0,2-1,2c-1,1-1,1-2,1h-14.2c-1,0-3.1-1-3.1-2
		c-3.1-15.3-11.2-20.3-34.6-20.3c-25.4,0-28.5,9.2-28.5,15.3c0,8.1,3.1,10.2,37.6,15.3c33.6,4.1,49.8,11.2,49.8,34.6
		C1608,520.2,1588.7,534.4,1554.1,534.4z"/>
	<path fill="#80BD01" d="M1170.6,444.9c1,0,2,0,3.1,0l22.4,13.2c1,0,1,1,1,2v25.4c0,1-1,2-1,2l-22.4,13.2c-1,0-2,0-3.1,0l-22.4-13.2
		c-1,0-1-1-1-2v-25.4c0-1,1-2,1-2L1170.6,444.9z"/>
	<g>
		<path fill="#80BD01" d="M1728,359.5c0,11.2-9.2,21.4-21.4,21.4c-11.2,0-21.4-9.2-21.4-21.4c0-12.2,10.2-21.4,21.4-21.4
			C1718.8,339.1,1728,348.3,1728,359.5z M1689.4,359.5c0,10.2,8.1,17.3,17.3,17.3c10.2,0,17.3-8.1,17.3-17.3
			c0-10.2-8.1-17.3-17.3-17.3C1697.5,342.2,1689.4,350.3,1689.4,359.5z M1699.5,348.3h8.1c3.1,0,8.1,0,8.1,6.1
			c0,4.1-3.1,5.1-4.1,6.1c3.1,0,3.1,2,4.1,5.1c0,2,1,5.1,1,6.1h-5.1c0-1-1-7.1-1-7.1c0-1-1-2-2-2h-4.1v9.2h-5.1L1699.5,348.3
			L1699.5,348.3z M1703.6,358.4h4.1c3.1,0,4.1-2,4.1-3.1c0-3.1-2-3.1-3.1-3.1h-4.1v6.1H1703.6z"/>
	</g>
</g>
</svg>
