<svg id="Layer_1" data-name="Layer 1" xmlns="http://www.w3.org/2000/svg" viewBox="0 0 107 17"><defs><style>.cls-1{fill:#231f20;}.cls-2{fill:none;}</style></defs><title>cli-logo</title><path class="cls-1" d="M.54,13.4h6.4V3.67h3.2V13.4h3.2V.42H.54ZM31.26.42v13h6.4V3.67h3.2V13.4h3.2V3.67h3.19V13.4h3.2V.42Zm-9,3.25h3.2v6.49H22.3Zm-6.4,13h6.4V13.4h6.4V.42H15.9Z"/><rect class="cls-2" x="0.54" y="0.42" width="49.91" height="16.22"/><polygon class="cls-1" points="65.58 3.56 65.58 9.86 71.66 9.86 71.66 13.02 65.44 13.02 59.2 13.04 59.22 0.41 71.66 0.41 71.66 3.54 65.58 3.56"/><polygon class="cls-1" points="80.62 10.23 80.62 0.36 74.23 0.36 74.23 13.3 76.92 13.3 80.62 13.3 86.47 13.3 86.47 10.23 80.62 10.23"/><rect class="cls-1" x="101.32" y="8.37" width="1.99" height="8.29" transform="translate(114.83 -89.79) rotate(90)"/><rect class="cls-1" x="88.33" y="0.36" width="6.39" height="12.94"/></svg>