<svg id="Layer_1" data-name="Layer 1" xmlns="http://www.w3.org/2000/svg" xmlns:xlink="http://www.w3.org/1999/xlink" viewBox="0 0 42 39"><defs><style>.cls-1,.cls-2,.cls-3{stroke-miterlimit:10;stroke-width:0.74px;}.cls-1{fill:url(#linear-gradient);stroke:url(#linear-gradient-2);}.cls-2{fill:url(#linear-gradient-3);stroke:url(#linear-gradient-4);}.cls-3{fill:url(#linear-gradient-5);stroke:url(#linear-gradient-6);}</style><linearGradient id="linear-gradient" x1="2.06" y1="27.12" x2="29.3" y2="27.12" gradientUnits="userSpaceOnUse"><stop offset="0" stop-color="#fb8817"/><stop offset="0.37" stop-color="#fb8719"/><stop offset="0.51" stop-color="#fa8420"/><stop offset="0.61" stop-color="#f9802c"/><stop offset="0.69" stop-color="#f7793d"/><stop offset="0.76" stop-color="#f47053"/><stop offset="0.82" stop-color="#f1656e"/><stop offset="0.87" stop-color="#ed578f"/><stop offset="0.92" stop-color="#e948b5"/><stop offset="0.97" stop-color="#e437de"/><stop offset="1" stop-color="#e02aff"/></linearGradient><linearGradient id="linear-gradient-2" x1="1.69" y1="27.12" x2="29.67" y2="27.12" gradientUnits="userSpaceOnUse"><stop offset="0" stop-color="#fb8817"/><stop offset="1" stop-color="#e02aff"/></linearGradient><linearGradient id="linear-gradient-3" x1="28.44" y1="20.41" x2="39.94" y2="20.41" xlink:href="#linear-gradient"/><linearGradient id="linear-gradient-4" x1="28.07" y1="20.41" x2="40.31" y2="20.41" xlink:href="#linear-gradient-2"/><linearGradient id="linear-gradient-5" x1="2.06" y1="10.94" x2="32.06" y2="10.94" xlink:href="#linear-gradient"/><linearGradient id="linear-gradient-6" x1="1.69" y1="10.94" x2="32.43" y2="10.94" xlink:href="#linear-gradient-2"/></defs><title>orange-cube</title><path class="cls-1" d="M29,37a.43.43,0,0,1-.22,0L10.35,35.24A.43.43,0,0,1,10,35L2.1,17.84a.43.43,0,1,1,.78-.36l7.8,16.93,17.5,1.69L20.6,19.64a.43.43,0,1,1,.78-.36l7.89,17.12A.43.43,0,0,1,29,37Z"/><path class="cls-2" d="M29,37a.43.43,0,0,1-.53-.63L39,21.29,31.25,4.41A.43.43,0,1,1,32,4.05l7.88,17.1a.43.43,0,0,1,0,.43L29.22,36.83A.43.43,0,0,1,29,37Z"/><path class="cls-3" d="M21.16,19.85a.38.38,0,0,1-.22,0l-18.5-1.8a.43.43,0,0,1-.31-.67L12.78,2.17A.43.43,0,0,1,13.17,2L31.67,3.81a.43.43,0,0,1,.31.67L21.33,19.71A.38.38,0,0,1,21.16,19.85Z"/></svg>