<svg id="Layer_1" data-name="Layer 1" xmlns="http://www.w3.org/2000/svg" xmlns:xlink="http://www.w3.org/1999/xlink" viewBox="0 0 56 52"><defs><style>.cls-1{fill:url(#linear-gradient);}</style><linearGradient id="linear-gradient" x1="1.52" y1="26" x2="54.48" y2="26" gradientUnits="userSpaceOnUse"><stop offset="0" stop-color="#fb8817"/><stop offset="1" stop-color="#e02aff"/></linearGradient></defs><title>pink-gradient-cube</title><path class="cls-1" d="M54.45,29a.58.58,0,0,0,0-.13.61.61,0,0,0,0-.08.59.59,0,0,0,0-.15s0,0,0,0L44.3,4.66a.6.6,0,0,0-.48-.36L18,1.43h0a.59.59,0,0,0-.23,0h0l0,0-.12.08-.07.07,0,0L1.63,22.85a.6.6,0,0,0-.07.59L11.75,47.33a.59.59,0,0,0,.19.24.58.58,0,0,0,.25.1l0,0,25.85,2.87a.6.6,0,0,0,.55-.24L54.37,29.2a.55.55,0,0,0,0-.07ZM49.63,29l2.14.24-.22.1ZM17.76,3.21l9.62,22.65L12.43,45.92,2.8,23.29Z"/></svg>