<svg id="Layer_1" data-name="Layer 1" xmlns="http://www.w3.org/2000/svg" viewBox="0 0 44 38"><defs><style>.cls-1{fill:#f0f;}</style></defs><title>purple-cube</title><path class="cls-1" d="M42.52,18.75,33.29,2.64a.43.43,0,0,0-.16-.15A.42.42,0,0,0,33,2.43h0l-18.59.11a.43.43,0,0,0-.37.22L4.54,19.06a.39.39,0,0,0,0,.06l0,.07a.42.42,0,0,0,0,.1.36.36,0,0,0,0,.06.41.41,0,0,0,0,.11v0l9.2,16.16a.43.43,0,0,0,.37.21l18.6-.11h0a.42.42,0,0,0,.16,0h0l.08-.07,0-.05,0,0,9.45-16.36A.43.43,0,0,0,42.52,18.75Zm-36.87.09L14.57,3.4l17.61-.11L23.25,18.75Z"/></svg>