<svg id="Layer_1" data-name="Layer 1" xmlns="http://www.w3.org/2000/svg" xmlns:xlink="http://www.w3.org/1999/xlink" viewBox="0 0 52 53"><defs><style>.cls-1{opacity:0.9;fill:url(#linear-gradient);}</style><linearGradient id="linear-gradient" x1="0.96" y1="26.5" x2="51.04" y2="26.5" gradientUnits="userSpaceOnUse"><stop offset="0" stop-color="#913fff"/><stop offset="1" stop-color="#e02aff"/></linearGradient></defs><title>purple-gradient-cube</title><path class="cls-1" d="M45.35,8.85a.56.56,0,0,0,0-.08.57.57,0,0,0,0-.09.57.57,0,0,0-.08-.11l-.06-.06L45,8.44l0,0L20.5.59a.59.59,0,0,0-.58.13L1.14,18.22l0,0a.57.57,0,0,0-.12.2l0,0s0,0,0,0a.57.57,0,0,0,0,.14.56.56,0,0,0,0,.1s0,0,0,0L6.65,44.23a.59.59,0,0,0,.4.43l24.43,7.75a.59.59,0,0,0,.3,0A.58.58,0,0,0,32,52.3l0,0L50.85,34.78a.59.59,0,0,0,.17-.56ZM7.73,43.63,2.34,19.52,25.48,26.9,30.87,51Z"/></svg>