<svg id="Layer_1" data-name="Layer 1" xmlns="http://www.w3.org/2000/svg" xmlns:xlink="http://www.w3.org/1999/xlink" viewBox="0 0 59 58"><defs><style>.cls-1{fill:url(#linear-gradient);}</style><linearGradient id="linear-gradient" x1="1.41" y1="29" x2="57.59" y2="29" gradientUnits="userSpaceOnUse"><stop offset="0" stop-color="#fb3b49"/><stop offset="1" stop-color="#ec3b49"/></linearGradient></defs><title>red-cube</title><path class="cls-1" d="M57.59,23.48a.61.61,0,0,0,0-.15.62.62,0,0,0,0-.09.61.61,0,0,0-.08-.15l0,0L39.22,1.82a.64.64,0,0,0-.61-.21L11.18,7.12l0,0a.63.63,0,0,0-.23.11l0,0,0,0a.61.61,0,0,0-.09.12l-.05.09,0,0L1.44,34.41a.64.64,0,0,0,.12.63L19.82,56.19a.64.64,0,0,0,.28.18.63.63,0,0,0,.29,0h0l27.43-5.51a.64.64,0,0,0,.48-.43l9.22-26.79a.68.68,0,0,0,0-.09A.66.66,0,0,0,57.59,23.48ZM47.25,49.69l-26,5.22L30,29.5l26-5.18Z"/></svg>